<?xml version="1.0" standalone="no"?>
<!DOCTYPE svg PUBLIC "-//W3C//DTD SVG 20010904//EN"
 "http://www.w3.org/TR/2001/REC-SVG-20010904/DTD/svg10.dtd">
<svg version="1.0" xmlns="http://www.w3.org/2000/svg"
 width="383.000000pt" height="383.000000pt" viewBox="0 0 383.000000 383.000000"
 preserveAspectRatio="xMidYMid meet">
<metadata>
Created by potrace 1.11, written by Peter Selinger 2001-2013
</metadata>
<g transform="translate(0.000000,383.000000) scale(0.100000,-0.100000)"
fill="#000000" stroke="none">
<path d="M400 2115 l0 -1535 1510 0 1510 0 0 1535 0 1535 -1510 0 -1510 0 0
-1535z m3000 0 l0 -1515 -1490 0 -1490 0 0 1515 0 1515 1490 0 1490 0 0 -1515z"/>
<path d="M932 3333 c-6 -10 -47 -103 -92 -208 -45 -104 -90 -208 -100 -230 -9
-22 -37 -85 -60 -140 -23 -55 -44 -103 -47 -107 -2 -5 15 -8 39 -8 l43 0 38
93 39 92 180 0 181 0 40 -93 39 -92 39 0 c22 0 39 3 39 7 0 5 -134 316 -262
611 -40 89 -42 92 -74 92 -22 0 -37 -6 -42 -17z m139 -310 c27 -67 49 -124 49
-127 0 -2 -66 -3 -147 -3 -92 1 -147 6 -146 12 1 6 30 80 66 165 35 85 67 164
71 175 8 22 9 20 107 -222z"/>
<path d="M1730 2386 l0 -34 196 0 c108 0 198 -3 200 -5 3 -3 -88 -134 -201
-293 -158 -221 -205 -294 -203 -314 l3 -25 253 -3 c165 -1 252 1 253 8 1 5 2
20 2 33 l1 22 -207 0 c-134 0 -206 4 -203 10 2 6 94 138 205 294 147 208 201
291 201 311 l0 29 -250 1 -250 1 0 -35z"/>
<path d="M2655 1278 l0 -353 38 -3 37 -3 0 188 0 188 72 -75 c39 -41 119 -126
179 -187 l108 -113 53 0 52 0 -71 73 c-39 39 -102 104 -139 143 -38 39 -91 94
-118 122 l-49 50 38 34 c21 18 43 38 49 43 6 6 54 48 106 95 52 47 110 100
129 118 l34 32 -51 0 c-40 0 -56 -5 -74 -23 -13 -13 -72 -68 -132 -123 -61
-54 -126 -114 -145 -133 l-36 -34 -5 154 -5 154 -35 3 -35 3 0 -353z"/>
</g>
</svg>
